<svg width="79" height="55" viewBox="0 0 79 55" fill="none" xmlns="http://www.w3.org/2000/svg">
<path d="M4.24585 51.6043V51.018C4.24585 50.8469 4.33136 50.7614 4.50238 50.7614H5.32694C5.49796 50.7614 5.58347 50.8469 5.58347 51.018V51.4944C5.58347 52.5938 6.12706 53.1435 7.21426 53.1435H8.82673C9.91393 53.1435 10.4575 52.5816 10.4575 51.4577V50.8347C10.4575 49.9552 9.7307 49.381 8.27703 49.1123C7.66624 49.0024 7.05546 48.8741 6.44467 48.7275C5.83388 48.5809 5.31473 48.2999 4.88717 47.8846C4.45962 47.4571 4.24585 46.8769 4.24585 46.1439V45.2461C4.24585 44.4032 4.48406 43.7435 4.96047 43.2671C5.44909 42.7785 6.11485 42.5342 6.95773 42.5342H8.99164C9.82231 42.5342 10.482 42.7785 10.9706 43.2671C11.4592 43.7435 11.7035 44.4032 11.7035 45.2461V45.7041C11.7035 45.8874 11.6241 45.979 11.4653 45.979H10.6224C10.4636 45.979 10.3842 45.8874 10.3842 45.7041V45.3743C10.3842 44.2627 9.84064 43.7069 8.75344 43.7069H7.19594C6.10874 43.7069 5.56514 44.2871 5.56514 45.4476V46.1806C5.56514 46.8036 5.97437 47.2312 6.79282 47.4632C7.15929 47.561 7.56241 47.6526 8.00217 47.7381C8.44194 47.8114 8.8817 47.9151 9.32147 48.0496C9.77344 48.1717 10.1827 48.3306 10.5491 48.526C10.9156 48.7092 11.2088 48.9962 11.4287 49.3872C11.6608 49.7658 11.7768 50.2301 11.7768 50.7798V51.6043C11.7768 52.4472 11.5325 53.113 11.0439 53.6016C10.5553 54.078 9.89561 54.3162 9.06494 54.3162H6.95773C6.12706 54.3162 5.46741 54.078 4.97879 53.6016C4.49017 53.113 4.24585 52.4472 4.24585 51.6043ZM15.619 54.3162H14.7944C14.6235 54.3162 14.5379 54.2307 14.5379 54.0597V42.7907C14.5379 42.6196 14.6235 42.5342 14.7944 42.5342H19.0821C19.925 42.5342 20.5847 42.7785 21.0611 43.2671C21.5375 43.7435 21.7757 44.4032 21.7757 45.2461V47.28C21.7757 48.135 21.5375 48.8008 21.0611 49.2772C20.5847 49.7537 19.925 49.9919 19.0821 49.9919H16.0588C15.9367 49.9919 15.8755 50.0468 15.8755 50.1568V54.0597C15.8755 54.2307 15.7901 54.3162 15.619 54.3162ZM16.0588 48.8008H18.8989C19.925 48.8008 20.4381 48.2756 20.4381 47.225V45.301C20.4381 44.2383 19.925 43.7069 18.8989 43.7069H16.0588C15.9367 43.7069 15.8755 43.7619 15.8755 43.8718V48.6359C15.8755 48.7459 15.9367 48.8008 16.0588 48.8008ZM26.8581 53.1435H28.7271C29.7532 53.1435 30.2663 52.6121 30.2663 51.5494V45.301C30.2663 44.2383 29.7532 43.7069 28.7271 43.7069H26.8581C25.8442 43.7069 25.3373 44.2383 25.3373 45.301V51.5494C25.3373 52.6121 25.8442 53.1435 26.8581 53.1435ZM28.892 54.3162H26.7115C25.8687 54.3162 25.2029 54.078 24.7143 53.6016C24.2379 53.1252 23.9997 52.4594 23.9997 51.6043V45.2461C23.9997 44.391 24.2379 43.7252 24.7143 43.2488C25.2029 42.7724 25.8687 42.5342 26.7115 42.5342H28.892C29.7349 42.5342 30.3946 42.7785 30.871 43.2671C31.3596 43.7435 31.6039 44.4032 31.6039 45.2461V51.6043C31.6039 52.4472 31.3596 53.113 30.871 53.6016C30.3946 54.078 29.7349 54.3162 28.892 54.3162ZM54.0743 54.3162H48.1925C48.0214 54.3162 47.9359 54.2307 47.9359 54.0597V42.7907C47.9359 42.6196 48.0214 42.5342 48.1925 42.5342H49.017C49.1881 42.5342 49.2736 42.6196 49.2736 42.7907V52.9419C49.2736 53.0519 49.3347 53.1069 49.4568 53.1069H54.0743C54.2454 53.1069 54.3309 53.1985 54.3309 53.3817V54.0597C54.3309 54.2307 54.2454 54.3162 54.0743 54.3162ZM58.8782 53.1435H60.7472C61.7734 53.1435 62.2864 52.6121 62.2864 51.5494V45.301C62.2864 44.2383 61.7734 43.7069 60.7472 43.7069H58.8782C57.8643 43.7069 57.3574 44.2383 57.3574 45.301V51.5494C57.3574 52.6121 57.8643 53.1435 58.8782 53.1435ZM60.9121 54.3162H58.7316C57.8888 54.3162 57.223 54.078 56.7344 53.6016C56.258 53.1252 56.0198 52.4594 56.0198 51.6043V45.2461C56.0198 44.391 56.258 43.7252 56.7344 43.2488C57.223 42.7724 57.8888 42.5342 58.7316 42.5342H60.9121C61.755 42.5342 62.4147 42.7785 62.8911 43.2671C63.3797 43.7435 63.624 44.4032 63.624 45.2461V51.6043C63.624 52.4472 63.3797 53.113 62.8911 53.6016C62.4147 54.078 61.755 54.3162 60.9121 54.3162ZM70.8387 54.3162H68.8597C68.0168 54.3162 67.351 54.078 66.8624 53.6016C66.386 53.1252 66.1478 52.4594 66.1478 51.6043V45.2461C66.1478 44.391 66.386 43.7252 66.8624 43.2488C67.351 42.7724 68.0168 42.5342 68.8597 42.5342H70.8387C71.6815 42.5342 72.3412 42.7785 72.8176 43.2671C73.294 43.7435 73.5322 44.4032 73.5322 45.2461V45.9973C73.5322 46.1806 73.4468 46.2722 73.2757 46.2722H72.4511C72.2801 46.2722 72.1946 46.1806 72.1946 45.9973V45.301C72.1946 44.2383 71.6877 43.7069 70.6738 43.7069H69.0063C67.9924 43.7069 67.4855 44.2383 67.4855 45.301V51.5494C67.4855 52.6121 67.9924 53.1435 69.0063 53.1435H70.6738C71.6877 53.1435 72.1946 52.6121 72.1946 51.5494V49.4971C72.1946 49.375 72.1396 49.3139 72.0297 49.3139H70.2157C70.0446 49.3139 69.9591 49.2344 69.9591 49.0757V48.3977C69.9591 48.2266 70.0446 48.1412 70.2157 48.1412H73.1657C73.4101 48.1412 73.5322 48.2694 73.5322 48.526V51.6043C73.5322 52.4594 73.294 53.1252 72.8176 53.6016C72.3412 54.078 71.6815 54.3162 70.8387 54.3162Z" fill="#967676"/>
<path d="M44.5469 42.5371H34.0763C33.7149 42.5371 33.4219 42.8301 33.4219 43.1915C33.4219 43.5529 33.7149 43.8459 34.0763 43.8459H44.5469C44.9083 43.8459 45.2013 43.5529 45.2013 43.1915C45.2013 42.8301 44.9083 42.5371 44.5469 42.5371Z" fill="#967676"/>
<path d="M39.3114 54.9709C38.95 54.9709 38.657 54.6779 38.657 54.3165V43.1915C38.657 42.8302 38.95 42.5371 39.3114 42.5371C39.6728 42.5371 39.9658 42.8302 39.9658 43.1915V54.3165C39.9658 54.6779 39.6728 54.9709 39.3114 54.9709Z" fill="#967676"/>
<path d="M39.3836 15.7061L45.051 41.2281H33.7163L39.3836 15.7061Z" fill="#967676"/>
<path d="M17.5229 35.6354L35.689 15.3486" stroke="#967676" stroke-linecap="round"/>
<path d="M1.0708 38.6278L45.6903 1.1875" stroke="#967676" stroke-width="1.5" stroke-linecap="round"/>
<path d="M31.2433 38.6484H1.29761" stroke="#967676" stroke-width="1.5" stroke-linecap="round"/>
<path d="M61.2452 35.6168L43.1128 15.3301" stroke="#967676" stroke-linecap="round"/>
<path d="M77.6943 38.6641L33.1349 1.15226" stroke="#967676" stroke-width="1.5" stroke-linecap="round"/>
<path d="M47.5283 38.6367L77.4739 38.6848" stroke="#967676" stroke-width="1.5" stroke-linecap="round"/>
</svg>
