<svg width="52" height="34" viewBox="0 0 52 34" fill="none" xmlns="http://www.w3.org/2000/svg">
<path d="M1 24.8636L30.5455 1" stroke="black" stroke-width="1.5" stroke-linecap="round"/>
<path d="M21.8996 24.999L1 24.8633" stroke="black" stroke-width="1.5" stroke-linecap="round"/>
<path d="M51 24.7617L21.9231 0.9999" stroke="black" stroke-width="1.5" stroke-linecap="round"/>
<path d="M21.5 25.0005L50.8569 24.8877" stroke="black" stroke-width="1.5" stroke-linecap="round"/>
<path d="M26 33.0908C25.5858 33.0908 25.25 32.755 25.25 32.3408V25.0408C25.25 24.6266 25.5858 24.2908 26 24.2908C26.4142 24.2908 26.75 24.6266 26.75 25.0408V32.3408C26.75 32.755 26.4142 33.0908 26 33.0908Z" fill="black"/>
<path d="M25.9999 4.49978L50.9999 24.9998L29.4999 25.4998L25.9999 9.99971L22.4999 25.4998L18.9999 25.329L1.99989 24.4998L25.9999 4.49978Z" fill="black"/>
</svg>
